<?xml version="1.0" encoding="iso-8859-1"?>
<!-- Uploaded to: SVG Repo, www.svgrepo.com, Generator: SVG Repo Mixer Tools -->
<svg height="800px" width="800px" version="1.1" id="Layer_1" xmlns="http://www.w3.org/2000/svg" xmlns:xlink="http://www.w3.org/1999/xlink" 
	 viewBox="0 0 511.971 511.971" xml:space="preserve">
<path style="fill:#ED5564;" d="M510.865,250.469c-1.172-18.937-3.234-34.42-6.14-46.029c-2.891-11.531-8.265-27.264-21.624-30.639
	c-6.125-1.562-12.484-2.344-18.921-2.344c-11.843,0-20.015,2.656-20.905,2.953c-1.953,0.656-3.672,1.859-4.938,3.469
	c-0.141,0.172-14.483,17.468-36.17,17.952c-20.514,0.453-36.092-10.921-41.748-15.733c-2.796-15.39-13.842-39.404-40.763-42.326
	c-0.5-0.047-1.016-0.078-1.531-0.078c-9.312,0-28.796,10.531-82.121,40.623c-22.14,12.483-45.029,25.405-64.465,35.482
	c-28.187,14.608-36.732,16.64-39.092,16.843c-27.515,2.312-97.776,16.046-105.808,18.733C13.749,253.656,0,264.655,0,282.654
	c0,16.265,5.733,29.249,5.983,29.779c0.75,1.703,1.938,3.172,3.438,4.266c1.969,1.422,48.576,35.061,101.823,42.92
	c17.687,2.609,119.728,4.438,200.24,4.438c46.278,0,127.352-0.578,150.351-4.469c41.436-7,49.216-42.623,49.528-44.139
	c0.109-0.562,0.172-1.141,0.203-1.719C511.615,312.465,512.802,282.139,510.865,250.469z"/>
<g>
	<polygon style="fill:#434A54;" points="214.552,339.136 175.132,219.221 195.397,212.565 234.817,332.481 	"/>
	<polygon style="fill:#434A54;" points="255.425,339.136 216.021,219.221 236.286,212.565 275.69,332.481 	"/>
	<polygon style="fill:#434A54;" points="296.345,339.199 251.644,206.081 271.879,199.285 316.563,332.419 	"/>
	<path style="fill:#434A54;" d="M469.993,369.667h-20.437c-5.891,0-10.672-4.766-10.672-10.656s4.781-10.671,10.672-10.671h20.437
		c5.89,0,10.671,4.78,10.671,10.671S475.882,369.667,469.993,369.667z"/>
	<path style="fill:#434A54;" d="M408.668,373.292h-20.437c-5.89,0-10.671-4.781-10.671-10.672s4.781-10.656,10.671-10.656h20.437
		c5.891,0,10.672,4.766,10.672,10.656S414.558,373.292,408.668,373.292z"/>
	<path style="fill:#434A54;" d="M122.464,370.682h-20.437c-5.89,0-10.671-4.766-10.671-10.656c0-5.906,4.781-10.671,10.671-10.671
		h20.437c5.891,0,10.672,4.765,10.672,10.671C133.135,365.917,128.354,370.682,122.464,370.682z"/>
	<path style="fill:#434A54;" d="M61.138,349.011H40.687c-5.891,0-10.656-4.766-10.656-10.656s4.766-10.671,10.656-10.671h20.451
		c5.891,0,10.656,4.781,10.656,10.671C71.795,344.246,67.029,349.011,61.138,349.011z"/>
	<path style="fill:#434A54;" d="M183.789,374.276h-20.437c-5.891,0-10.671-4.781-10.671-10.672s4.78-10.656,10.671-10.656h20.437
		c5.891,0,10.671,4.766,10.671,10.656S189.679,374.276,183.789,374.276z"/>
</g>
<path style="fill:#E6E9ED;" d="M507.99,325.137c0,0-112.338-0.422-262.86-0.422c-47.436,0-102.308,0.141-126.791-3.031
	C70.591,315.497,0.986,282.171,0.017,281.717c0,0.312-0.016,0.625-0.016,0.938c0,16.265,5.733,29.249,5.983,29.779
	c0.75,1.703,1.938,3.172,3.438,4.266c1.969,1.422,48.576,35.061,101.823,42.92c17.687,2.609,119.728,4.438,200.24,4.438
	c46.278,0,127.352-0.578,150.351-4.469C490.164,354.807,502.757,336.636,507.99,325.137L507.99,325.137z"/>
<path style="fill:#DA4453;" d="M319.657,137.772c-0.5-0.047-1.016-0.078-1.531-0.078c-9.312,0-28.796,10.531-82.121,40.623
	c-22.14,12.483-45.029,25.405-64.465,35.482c-28.187,14.608-36.732,16.64-39.092,16.843c123.54,0,227.972-50.544,227.972-50.544
	C357.624,164.708,346.578,140.694,319.657,137.772z"/>
</svg>